<svg width="37" height="34" viewBox="0 0 37 34" fill="none" xmlns="http://www.w3.org/2000/svg">
<path d="M31.2301 28.9167C32.2209 33.448 27.2866 34.4316 25.1138 33.8444C22.9409 33.2523 18.5069 33.1544 18.5069 33.1544C18.5069 33.1544 14.0631 33.2523 11.8902 33.8444C9.71736 34.4365 4.77815 33.4529 5.76403 28.9167C6.74991 24.3854 11.0956 24.5811 12.2875 18.4693C13.4745 12.3574 18.5118 12.7489 18.5118 12.7489C18.5118 12.7489 23.5344 12.3574 24.7214 18.4693C25.9035 24.5811 30.2443 24.3854 31.2301 28.9167ZM23.0684 12.3525C25.7416 13.1208 28.6992 11.0166 29.6704 7.64508C30.6416 4.27843 29.2682 0.926446 26.595 0.158182C23.9219 -0.610082 20.9642 1.49408 19.9931 4.86563C19.017 8.23229 20.3953 11.5843 23.0684 12.3525ZM34.1535 11.1292C31.5784 10.082 28.4147 11.8583 27.0855 15.1026C25.7563 18.347 26.7716 21.8311 29.3467 22.8733C31.9217 23.9205 35.0854 22.1442 36.4146 18.8999C37.7438 15.6556 36.7334 12.1764 34.1535 11.1292ZM13.9257 12.3525C16.5989 11.5843 17.9772 8.2274 17.0011 4.86563C16.0299 1.49897 13.0723 -0.605188 10.3991 0.163076C7.72598 0.93134 6.34771 4.28821 7.32378 7.64998C8.29985 11.0166 11.2526 13.1208 13.9257 12.3525ZM7.65241 22.8782C10.2275 21.8311 11.2379 18.347 9.91356 15.1075C8.58433 11.8632 5.42069 10.082 2.84563 11.1341C0.27057 12.1764 -0.74474 15.6605 0.584482 18.8999C1.9137 22.1442 5.07735 23.9254 7.65241 22.8733V22.8782Z" fill="#9B74B7"/>
</svg>
